<svg width="34" height="39" viewBox="0 0 34 39" fill="none" xmlns="http://www.w3.org/2000/svg">
<path d="M16.87 38.3283C16.6525 38.3283 16.4547 38.269 16.2569 38.1701L0.632873 29.3692C0.237328 29.1517 0 28.7561 0 28.3013V1.22619C0 0.553763 0.533987 0 1.22619 0H32.494C33.1665 0 33.7202 0.533985 33.7202 1.22619V28.3013C33.7202 28.7364 33.4631 29.1517 33.0874 29.3692L17.4633 38.1701C17.2655 38.2888 17.0876 38.3283 16.87 38.3283ZM2.47216 27.609L16.87 35.7177L31.2876 27.609V2.45238H2.47216V27.609Z" fill="black"/>
<path d="M16.87 26.0862C16.6525 26.0862 16.4547 26.0269 16.2569 25.928L11.3126 23.1196C10.917 22.9021 10.6797 22.5065 10.6797 22.0516V16.9096H13.1321V21.3199L16.87 23.4163L21.221 20.9639L22.4274 23.0998L17.4831 25.9082C17.2655 26.0269 17.0876 26.0862 16.87 26.0862Z" fill="black"/>
<path d="M16.87 32.2172C16.6524 32.2172 16.4547 32.1578 16.2569 32.0589L5.95294 26.2642C5.55739 26.0467 5.32007 25.6313 5.32007 25.1962V11.9257C5.32007 11.2533 5.85405 10.6995 6.54626 10.6995H21.6561V13.1519H7.77245V24.504L16.8304 29.6066L25.8884 24.504V19.1839H28.3803V25.1765C28.3803 25.6116 28.1232 26.0269 27.7475 26.2444L17.4435 32.0392C17.2655 32.1776 17.0875 32.2172 16.87 32.2172Z" fill="black"/>
<path d="M28.3804 14.4967H25.928V7.81202H9.67108V5.35965H27.1344C27.8068 5.35965 28.3606 5.89363 28.3606 6.58584V14.4967H28.3804Z" fill="black"/>
</svg>
