<svg width="38" height="32" viewBox="0 0 38 32" fill="none" xmlns="http://www.w3.org/2000/svg">
<g clip-path="url(#clip0_9_35)">
<path d="M32.8323 6.21816C30.4018 5.72637 26.4829 5.06126 25.3881 7.34918C22.042 13.1448 20.1209 19.2106 18.675 21.8132C18.8268 21.9009 25.4916 25.7677 25.963 25.9964C27.4613 26.7235 29.9628 26.3964 31.0285 24.4744C33.9847 19.1426 33.2333 20.5307 36.3743 15.0904C38.4041 11.5747 35.8663 6.83198 32.8323 6.21816Z" fill="#EA4335"/>
<path d="M11.804 29.7469C10.172 27.8799 8.97483 24.1446 10.4089 22.0527C14.5981 14.7965 17.9517 10.4039 20.5891 6.00092C21.9876 6.80842 27.5913 9.98698 27.9644 10.3145C29.2164 11.4127 30.2536 13.5113 29.1219 15.3951C25.9826 20.6212 24.6945 22.9863 21.5037 28.5131C19.4734 32.0298 13.8428 32.0794 11.804 29.7469Z" fill="#FDBD00"/>
<path d="M26.8302 2.51905C23.5654 0.611302 21.8873 0.86133 20.1316 1.1429C18.5355 1.5419 16.3772 2.70186 15.4674 4.19208C13.1723 7.95124 10.9985 11.671 8.18233 16.7119C7.31496 18.2644 7.95879 20.1719 8.75925 20.9288C9.30172 21.4421 13.2931 23.6442 14.0296 23.9609C15.0714 24.4087 16.6319 24.0971 17.5732 23.1283C17.8331 22.8606 23.7876 12.633 25.4645 9.61646C26.1723 8.3435 26.8098 7.63904 27.8683 6.96C29.9131 5.88701 31.5095 5.7486 33.9549 6.64276C33.9549 6.64276 28.6328 3.5579 26.8302 2.51905Z" fill="#2DA94F"/>
<path d="M5.82398 26.5215C2.53932 24.648 1.91677 23.0698 1.28274 21.4084C0.830305 19.8267 0.755741 17.3776 1.59141 15.8443C3.69958 11.9774 3.68443 11.9578 6.6419 6.99843C7.55275 5.471 9.52664 5.07491 10.5825 5.38955C11.2981 5.60268 15.2009 7.95827 15.8433 8.43781C16.7522 9.11609 17.2625 10.6233 16.8941 11.9231C16.7923 12.2819 13.0615 18.8295 11.2877 21.7902C10.539 23.0396 10.2478 23.9439 10.189 25.2C10.2821 27.5073 10.9604 28.9591 12.9575 30.6299C12.9575 30.6299 7.62486 27.5631 5.82398 26.5215Z" fill="#297AEC"/>
</g>
<defs>
<clipPath id="clip0_9_35">
<rect width="38" height="31.9504" fill="white"/>
</clipPath>
</defs>
</svg>
