<svg width="38" height="12" viewBox="0 0 38 12" fill="none" xmlns="http://www.w3.org/2000/svg">
<g clip-path="url(#clip0_2_19)">
<path d="M37.8717 3.51628C37.5268 2.53011 36.5867 1.82194 35.4827 1.82194H35.4596C34.7419 1.82194 34.095 2.12062 33.6345 2.60018C33.1734 2.12062 32.5265 1.82194 31.8095 1.82194H31.7864C31.1554 1.82194 30.5787 2.05298 30.1358 2.43526V2.24085C30.1206 2.0472 29.9613 1.89505 29.7646 1.89505H28.071C27.8639 1.89505 27.6967 2.0624 27.6967 2.27019V11.4671C27.6967 11.675 27.864 11.8422 28.071 11.8422H29.7646C29.9534 11.8422 30.1087 11.7012 30.1335 11.5188L30.1328 4.91651C30.1328 4.8934 30.1335 4.87197 30.136 4.85039C30.163 4.55566 30.3789 4.31352 30.7199 4.28312H31.0321C31.1747 4.29589 31.2951 4.34605 31.3898 4.42175C31.5372 4.53879 31.6192 4.71891 31.6192 4.91651L31.6256 11.4863C31.6256 11.6942 31.7937 11.8623 31.9999 11.8623H33.6935C33.8934 11.8623 34.056 11.703 34.0656 11.5046L34.0649 4.90784C34.0641 4.69109 34.1644 4.49516 34.3404 4.37888C34.4272 4.3231 34.5316 4.28571 34.6519 4.27446H34.9641C35.3306 4.30638 35.552 4.58439 35.5513 4.90784L35.5576 11.4688C35.5576 11.6767 35.7258 11.8439 35.932 11.8439H37.6256C37.8319 11.8439 38 11.6766 38 11.4688V4.41247C38 3.93124 37.9459 3.7265 37.8717 3.51628ZM26.4063 1.91907H25.4376V0.344954C25.4376 0.15617 25.2847 0.00325775 25.0959 0.00325775C25.0736 0.00325775 25.0522 0.00644975 25.0313 0.0104018C23.9575 0.30513 24.1725 1.79245 22.2122 1.91907H22.0217C21.993 1.91907 21.966 1.92302 21.9397 1.92864H21.9381L21.9397 1.9294C21.7723 1.96679 21.6465 2.11499 21.6465 2.29344V3.98718C21.6465 4.19344 21.8146 4.36155 22.0216 4.36155H23.0436L23.0421 11.5431C23.0421 11.7478 23.2078 11.9135 23.4125 11.9135H25.087C25.291 11.9135 25.4566 11.7478 25.4566 11.5431L25.4574 4.36155H26.4062C26.6124 4.36155 26.7806 4.19344 26.7806 3.98718V2.29359C26.7809 2.08718 26.6128 1.91907 26.4063 1.91907Z" fill="#54C1F0"/>
<path d="M20.313 1.91906H18.6194C18.4131 1.91906 18.2458 2.08718 18.2458 2.29344V5.79537C18.2418 6.01212 18.0666 6.1857 17.8491 6.1857H17.1401C16.9203 6.1857 16.7426 6.00893 16.7426 5.78898L16.7363 2.29344C16.7363 2.08718 16.5682 1.91906 16.3619 1.91906H14.6682C14.461 1.91906 14.2938 2.08718 14.2938 2.29344V6.13159C14.2938 7.58942 15.3333 8.62895 16.7919 8.62895C16.7919 8.62895 17.8864 8.62895 17.9199 8.63534C18.1175 8.65768 18.2712 8.82336 18.2712 9.02734C18.2712 9.2289 18.1205 9.39382 17.9254 9.41844C17.9158 9.41996 17.907 9.42239 17.8966 9.42406L15.4199 9.43288C15.2128 9.43288 15.0456 9.60099 15.0456 9.80726V11.5001C15.0456 11.7073 15.2129 11.8745 15.4199 11.8745H18.1889C19.6483 11.8745 20.687 10.8357 20.687 9.3771V2.29359C20.6874 2.08718 20.5202 1.91906 20.313 1.91906ZM4.06904 1.91876H0.367232C0.16416 1.91876 0 2.08353 0 2.28599V3.94538C0 3.94857 0.00076 3.95176 0.00076 3.95495C0.00076 3.96286 0 3.97091 0 3.97806V11.4884C0 11.6924 0.152912 11.8588 0.342608 11.8635H2.06811C2.27438 11.8635 2.44249 11.6962 2.44249 11.4891L2.44887 8.91532H4.06919C5.42503 8.91532 6.36986 7.97459 6.36986 6.61313V4.22414C6.36971 2.86268 5.42488 1.91876 4.06904 1.91876ZM3.92008 6.06745C3.92008 6.28648 3.74239 6.46493 3.52336 6.46493L2.44872 6.46569V4.37143H3.52336C3.74239 4.37143 3.92008 4.54821 3.92008 4.76815V6.06745ZM10.6778 1.92834H8.32793C8.11999 1.92834 7.95188 2.08611 7.95188 2.27961V2.93838C7.95188 2.94233 7.95264 2.94719 7.95264 2.95114C7.95264 2.95586 7.95188 2.96072 7.95188 2.96543V3.86801C7.95188 4.07275 8.13033 4.23995 8.35012 4.23995H10.5879C10.7646 4.26777 10.9049 4.39682 10.9248 4.59837V4.81664C10.9049 5.00862 10.7663 5.14876 10.5974 5.16472H9.48936C8.01557 5.16472 6.9657 6.14375 6.9657 7.51874V9.4879C6.9657 10.8548 7.86828 11.8275 9.33158 11.8275H12.4026C12.9539 11.8275 13.4008 11.4101 13.4008 10.8962V4.47038C13.4008 2.91223 12.5978 1.92834 10.6778 1.92834ZM10.9472 9.26279C10.9472 9.28438 10.944 9.30505 10.9408 9.32496C10.9368 9.34366 10.9315 9.36205 10.9248 9.37998C10.8723 9.52818 10.7241 9.63565 10.548 9.63565H9.84307C9.62327 9.63565 9.44391 9.4683 9.44391 9.26279V8.94329C9.44391 8.93934 9.44315 8.93538 9.44315 8.93128L9.44391 8.0813V7.8153L9.44467 7.81286C9.44543 7.60812 9.62312 7.44244 9.84291 7.44244H10.5479C10.7686 7.44244 10.947 7.60888 10.947 7.8153V9.26279H10.9472Z" fill="#233266"/>
</g>
<defs>
<clipPath id="clip0_2_19">
<rect width="38" height="11.9168" fill="white"/>
</clipPath>
</defs>
</svg>
