<svg width="40" height="40" viewBox="0 0 40 40" fill="none" xmlns="http://www.w3.org/2000/svg">
<path d="M20 40C31.0457 40 40 31.0457 40 20C40 8.9543 31.0457 0 20 0C8.9543 0 0 8.9543 0 20C0 31.0457 8.9543 40 20 40Z" fill="#5F259F"/>
<path d="M29.0774 14.7805C29.0774 13.9987 28.4069 13.3282 27.625 13.3282H24.9437L18.7987 6.2894C18.2401 5.61893 17.3464 5.39563 16.4526 5.61893L14.3298 6.2894C13.9946 6.40135 13.8826 6.84794 14.1065 7.07123L20.8101 13.4402H10.6416C10.3064 13.4402 10.0831 13.6635 10.0831 13.9987V15.1158C10.0831 15.8976 10.7535 16.5681 11.5354 16.5681H13.0996V21.9313C13.0996 25.9536 15.2224 28.3002 18.7981 28.3002C19.9152 28.3002 20.8095 28.1883 21.9266 27.7417V31.3174C21.9266 32.3231 22.7084 33.1049 23.7141 33.1049H25.2784C25.6136 33.1049 25.9489 32.7697 25.9489 32.4345V16.4567H28.5188C28.8541 16.4567 29.0774 16.2334 29.0774 15.8982V14.7805ZM21.9266 24.3893C21.2561 24.7246 20.3623 24.8365 19.6919 24.8365C17.9043 24.8365 17.0105 23.9427 17.0105 21.9313V16.5681H21.9266V24.3893Z" fill="white"/>
</svg>
