<svg width="23" height="16" viewBox="0 0 23 16" fill="none" xmlns="http://www.w3.org/2000/svg">
<rect x="0.5" y="0.5" width="22" height="15" rx="2" fill="white" stroke="#D9D9D9"/>
<path fill-rule="evenodd" clip-rule="evenodd" d="M7.02517 10.8388H5.63182L4.58697 6.79491C4.53738 6.60889 4.43208 6.44444 4.27718 6.36693C3.89063 6.17215 3.46468 6.01713 3 5.93895V5.78326H5.24458C5.55437 5.78326 5.78671 6.01713 5.82543 6.28875L6.36756 9.20576L7.76023 5.78326H9.11486L7.02517 10.8388ZM9.88932 10.8388H8.57341L9.65698 5.78326H10.9729L9.88932 10.8388ZM12.6754 7.18381C12.7141 6.91152 12.9464 6.75583 13.2175 6.75583C13.6434 6.71673 14.1074 6.79492 14.4947 6.98902L14.727 5.90054C14.3398 5.74485 13.9138 5.66666 13.5273 5.66666C12.2501 5.66666 11.3207 6.36694 11.3207 7.33882C11.3207 8.07819 11.979 8.4664 12.4437 8.70027C12.9464 8.93347 13.14 9.08916 13.1013 9.32236C13.1013 9.67216 12.7141 9.82785 12.3275 9.82785C11.8629 9.82785 11.3982 9.71125 10.9729 9.51647L10.7406 10.6056C11.2052 10.7997 11.708 10.8779 12.1726 10.8779C13.6047 10.9163 14.4947 10.2167 14.4947 9.16667C14.4947 7.84431 12.6754 7.7668 12.6754 7.18381ZM19.1 10.8388L18.0552 5.78326H16.9329C16.7005 5.78326 16.4682 5.93895 16.3907 6.17215L14.4559 10.8388H15.8106L16.081 10.1001H17.7454L17.9003 10.8388H19.1ZM17.1265 7.14472L17.513 9.05008H16.4294L17.1265 7.14472Z" fill="#172B85"/>
</svg>
