<svg width="38" height="30" viewBox="0 0 38 30" fill="none" xmlns="http://www.w3.org/2000/svg">
<g clip-path="url(#clip0_8_344)">
<path d="M12.1783 21.9995C13.5545 21.9995 14.1573 20.1933 13.0381 19.3335C12.9244 19.2199 12.7811 19.0766 12.6082 18.9036C7.19479 14.5205 5.56163 15.5533 0.148238 17.4434C-0.0247138 17.5299 -0.0247138 17.7868 0.148238 17.8733C1.77893 18.2168 3.32808 19.2471 5.38868 21.3966L11.5779 21.9995C11.7492 21.9995 11.9493 21.9995 12.1783 21.9995ZM37.6195 0.0815121L16.8208 20.8802C15.3606 22.4294 13.211 23.2027 11.0615 23.0298L6.07802 22.5998L11.2345 27.5858C13.9844 30.1628 18.3675 29.6489 20.4306 26.553L37.9629 0.338469C38.0494 0.167988 37.79 -0.0914398 37.6195 0.0815121Z" fill="#EB1F48"/>
</g>
<defs>
<clipPath id="clip0_8_344">
<rect width="38" height="29.2536" fill="white"/>
</clipPath>
</defs>
</svg>
