<svg width="512" height="512" viewBox="0 0 512 512" fill="none" xmlns="http://www.w3.org/2000/svg">
<rect width="512" height="512" rx="50" fill="black"/>
<path d="M133.983 250.267C144.007 245.299 158.307 244.248 170.13 248.814C181.49 253.201 192.799 256.727 204.077 259.391C191.357 262.305 178.588 266.252 165.735 271.221C154.975 275.38 142.185 274.288 133.23 269.66C129.122 267.537 127.114 265.338 126.294 264.123C125.706 263.251 125.232 262.267 125.232 260.114C125.232 257.946 125.702 257.025 126.299 256.166C127.169 254.915 129.38 252.548 133.983 250.267ZM343.25 248.431C354.695 243.957 368.63 244.941 378.416 249.779C382.898 251.996 385.014 254.281 385.815 255.433C386.343 256.192 386.768 256.987 386.768 259.002C386.768 260.984 386.347 261.811 385.817 262.59C385.038 263.733 383.026 265.945 378.791 268.112C369.543 272.844 356.292 273.981 345.224 269.826C333.267 265.337 321.386 261.764 309.552 259.101C320.749 256.395 331.976 252.838 343.25 248.431Z" stroke="white" stroke-width="127"/>
<mask id="path-3-inside-1_1_10" fill="white">
<path d="M123.216 258.789C123.216 216.749 173.373 195.513 212.577 210.692C242.46 222.262 270.3 222.209 300.194 210.496C338.995 195.293 388.783 216.362 388.783 258.035C388.783 299.042 340.462 320.396 302.08 305.958C270.681 294.146 241.471 294.425 209.614 306.755C171.271 321.596 123.216 299.904 123.216 258.789Z"/>
</mask>
<path d="M302.08 305.958L263.351 408.914L302.08 305.958ZM212.577 210.692L172.861 313.272C228.46 334.799 284.794 334.673 340.324 312.914L300.194 210.496L260.063 108.077C257.98 108.894 256.769 109.181 256.305 109.275C255.881 109.361 255.883 109.326 256.144 109.325C256.406 109.325 256.414 109.359 256.003 109.278C255.553 109.189 254.358 108.912 252.293 108.112L212.577 210.692ZM302.08 305.958L340.809 203.001C283.51 181.447 226.374 182.315 169.908 204.171L209.614 306.755L249.32 409.339C254.691 407.26 256.837 407.3 256.991 407.299C257.079 407.298 258.784 407.196 263.351 408.914L302.08 305.958ZM209.614 306.755L169.908 204.171C180.911 199.912 192.17 200.662 202.638 206.085C208.506 209.125 216.138 214.726 222.578 224.294C229.415 234.453 233.216 246.694 233.216 258.789H123.216H13.2156C13.2156 328.044 55.4179 377.585 101.435 401.426C145.516 424.263 199.974 428.439 249.32 409.339L209.614 306.755ZM388.783 258.035H278.783C278.783 245.692 282.7 233.249 289.675 222.994C296.224 213.364 303.902 207.848 309.611 204.918C319.696 199.744 330.294 199.046 340.809 203.001L302.08 305.958L263.351 408.914C312.248 427.308 366.198 423.152 410.039 400.658C455.855 377.152 498.783 327.849 498.783 258.035H388.783ZM300.194 210.496L340.324 312.914C330.132 316.908 319.98 316.349 310.177 311.489C304.569 308.708 296.766 303.311 290.033 293.612C282.834 283.24 278.783 270.577 278.783 258.035H388.783H498.783C498.783 186.882 454.353 137.416 407.901 114.385C363.503 92.372 309.057 88.8803 260.063 108.077L300.194 210.496ZM212.577 210.692L252.293 108.112C203.236 89.1187 148.735 92.6663 104.243 114.776C57.679 137.915 13.2156 187.503 13.2156 258.789H123.216H233.216C233.216 271.208 229.207 283.776 222.063 294.08C215.385 303.711 207.657 309.053 202.147 311.791C192.534 316.568 182.714 317.087 172.861 313.272L212.577 210.692Z" fill="black" mask="url(#path-3-inside-1_1_10)"/>
</svg>
