<svg width="5232" height="1145" viewBox="0 0 5232 1145" fill="none" xmlns="http://www.w3.org/2000/svg">
<path d="M1895.2 853C1865.33 858.6 1836 861 1807.2 860.2C1778.67 859.667 1753.07 854.733 1730.4 845.4C1708 835.8 1690.93 820.467 1679.2 799.4C1668.53 779.667 1662.93 759.667 1662.4 739.4C1661.87 718.867 1661.6 695.667 1661.6 669.8V301H1770.4V663.4C1770.4 680.2 1770.53 695.4 1770.8 709C1771.33 722.333 1774.13 733 1779.2 741C1788.8 756.2 1804.13 764.467 1825.2 765.8C1846.27 767.133 1869.6 766.067 1895.2 762.6V853ZM1588 505V421H1895.2V505H1588ZM2130.43 865C2086.96 865 2048.83 855.267 2016.03 835.8C1983.23 816.333 1957.63 789.533 1939.23 755.4C1921.1 721 1912.03 681.533 1912.03 637C1912.03 591.933 1921.36 552.333 1940.03 518.2C1958.7 483.8 1984.43 457 2017.23 437.8C2050.03 418.6 2087.76 409 2130.43 409C2173.9 409 2212.03 418.733 2244.83 438.2C2277.9 457.667 2303.63 484.6 2322.03 519C2340.43 553.133 2349.63 592.467 2349.63 637C2349.63 681.8 2340.3 721.4 2321.63 755.8C2303.23 789.933 2277.5 816.733 2244.43 836.2C2211.63 855.4 2173.63 865 2130.43 865ZM2130.43 763.4C2165.36 763.4 2191.36 751.667 2208.43 728.2C2225.76 704.467 2234.43 674.067 2234.43 637C2234.43 598.6 2225.63 567.933 2208.03 545C2190.7 522.067 2164.83 510.6 2130.43 510.6C2106.7 510.6 2087.23 515.933 2072.03 526.6C2056.83 537.267 2045.5 552.067 2038.03 571C2030.83 589.933 2027.23 611.933 2027.23 637C2027.23 675.667 2035.9 706.467 2053.23 729.4C2070.83 752.067 2096.56 763.4 2130.43 763.4ZM2566.39 865.8C2532.53 865.8 2504.93 860.067 2483.59 848.6C2462.26 837.133 2445.59 822.6 2433.59 805C2421.86 787.4 2413.46 769.133 2408.39 750.2C2403.33 731 2400.26 713.533 2399.19 697.8C2398.13 682.067 2397.59 670.6 2397.59 663.4V421H2507.99V625C2507.99 634.867 2508.53 647.533 2509.59 663C2510.66 678.2 2513.99 693.533 2519.59 709C2525.19 724.467 2534.26 737.4 2546.79 747.8C2559.59 758.2 2577.59 763.4 2600.79 763.4C2610.13 763.4 2620.13 761.933 2630.79 759C2641.46 756.067 2651.46 750.467 2660.79 742.2C2670.13 733.667 2677.73 721.267 2683.59 705C2689.73 688.467 2692.79 666.867 2692.79 640.2L2755.19 669.8C2755.19 703.933 2748.26 735.933 2734.39 765.8C2720.53 795.667 2699.59 819.8 2671.59 838.2C2643.86 856.6 2608.79 865.8 2566.39 865.8ZM2706.39 853V709.8H2692.79V421H2802.39V853H2706.39ZM3072.59 865C3027.79 865 2989.39 855 2957.39 835C2925.39 815 2900.85 787.8 2883.79 753.4C2866.72 719 2858.19 680.2 2858.19 637C2858.19 593.267 2866.99 554.2 2884.59 519.8C2902.45 485.4 2927.52 458.333 2959.79 438.6C2992.05 418.867 3030.19 409 3074.19 409C3125.12 409 3167.79 421.933 3202.19 447.8C3236.85 473.4 3258.99 508.467 3268.59 553L3159.79 581.8C3153.39 559.4 3142.19 541.933 3126.19 529.4C3110.45 516.867 3092.59 510.6 3072.59 510.6C3049.65 510.6 3030.85 516.2 3016.19 527.4C3001.52 538.333 2990.72 553.4 2983.79 572.6C2976.85 591.533 2973.39 613 2973.39 637C2973.39 674.6 2981.65 705.133 2998.19 728.6C3014.99 751.8 3039.79 763.4 3072.59 763.4C3097.12 763.4 3115.79 757.8 3128.59 746.6C3141.39 735.4 3150.99 719.4 3157.39 698.6L3268.59 721.8C3256.32 767.667 3233.12 803 3198.99 827.8C3164.85 852.6 3122.72 865 3072.59 865ZM3610.99 853V649C3610.99 639.133 3610.46 626.6 3609.39 611.4C3608.33 595.933 3604.99 580.467 3599.39 565C3593.79 549.533 3584.59 536.6 3571.79 526.2C3559.26 515.8 3541.39 510.6 3518.19 510.6C3508.86 510.6 3498.86 512.067 3488.19 515C3477.53 517.933 3467.53 523.667 3458.19 532.2C3448.86 540.467 3441.13 552.733 3434.99 569C3429.13 585.267 3426.19 606.867 3426.19 633.8L3363.79 604.2C3363.79 570.067 3370.73 538.067 3384.59 508.2C3398.46 478.333 3419.26 454.2 3446.99 435.8C3474.99 417.4 3510.19 408.2 3552.59 408.2C3586.46 408.2 3614.06 413.933 3635.39 425.4C3656.73 436.867 3673.26 451.4 3684.99 469C3696.99 486.6 3705.53 505 3710.59 524.2C3715.66 543.133 3718.73 560.467 3719.79 576.2C3720.86 591.933 3721.39 603.4 3721.39 610.6V853H3610.99ZM3315.79 853V277H3412.59V573H3426.19V853H3315.79ZM4005.19 865C3962.25 865 3926.39 855 3897.59 835C3868.79 815 3847.05 787.8 3832.39 753.4C3817.99 719 3810.79 680.2 3810.79 637C3810.79 593.8 3817.99 555 3832.39 520.6C3846.79 486.2 3867.99 459 3895.99 439C3923.99 419 3958.52 409 3999.59 409C4040.92 409 4076.92 418.867 4107.59 438.6C4138.25 458.333 4161.99 485.4 4178.79 519.8C4195.85 553.933 4204.39 593 4204.39 637C4204.39 680.2 4195.99 719 4179.19 753.4C4162.65 787.8 4139.45 815 4109.59 835C4079.72 855 4044.92 865 4005.19 865ZM3792.39 1045V421H3888.39V717H3901.99V1045H3792.39ZM3987.59 768.2C4011.05 768.2 4030.25 762.333 4045.19 750.6C4060.12 738.867 4071.19 723.133 4078.39 703.4C4085.59 683.4 4089.19 661.267 4089.19 637C4089.19 613 4085.45 591.133 4077.99 571.4C4070.52 551.4 4058.92 535.533 4043.19 523.8C4027.72 511.8 4007.85 505.8 3983.59 505.8C3960.92 505.8 3942.52 511.267 3928.39 522.2C3914.52 533.133 3904.39 548.467 3897.99 568.2C3891.59 587.933 3888.39 610.867 3888.39 637C3888.39 663.133 3891.59 686.067 3897.99 705.8C3904.39 725.533 3914.79 740.867 3929.19 751.8C3943.85 762.733 3963.32 768.2 3987.59 768.2ZM4380.41 865C4349.47 865 4323.21 859.133 4301.61 847.4C4280.27 835.4 4264.01 819.533 4252.81 799.8C4241.87 779.8 4236.41 757.8 4236.41 733.8C4236.41 713.8 4239.47 695.533 4245.61 679C4251.74 662.467 4261.61 647.933 4275.21 635.4C4289.07 622.6 4307.61 611.933 4330.81 603.4C4346.81 597.533 4365.87 592.333 4388.01 587.8C4410.14 583.267 4435.21 579 4463.21 575C4491.21 570.733 4522.01 566.067 4555.61 561L4516.41 582.6C4516.41 557 4510.27 538.2 4498.01 526.2C4485.74 514.2 4465.21 508.2 4436.41 508.2C4420.41 508.2 4403.74 512.067 4386.41 519.8C4369.07 527.533 4356.94 541.267 4350.01 561L4251.61 529.8C4262.54 494.067 4283.07 465 4313.21 442.6C4343.34 420.2 4384.41 409 4436.41 409C4474.54 409 4508.41 414.867 4538.01 426.6C4567.61 438.333 4590.01 458.6 4605.21 487.4C4613.74 503.4 4618.81 519.4 4620.41 535.4C4622.01 551.4 4622.81 569.267 4622.81 589V853H4527.61V764.2L4541.21 782.6C4520.14 811.667 4497.34 832.733 4472.81 845.8C4448.54 858.6 4417.74 865 4380.41 865ZM4403.61 779.4C4423.61 779.4 4440.41 775.933 4454.01 769C4467.87 761.8 4478.81 753.667 4486.81 744.6C4495.07 735.533 4500.67 727.933 4503.61 721.8C4509.21 710.067 4512.41 696.467 4513.21 681C4514.27 665.267 4514.81 652.2 4514.81 641.8L4546.81 649.8C4514.54 655.133 4488.41 659.667 4468.41 663.4C4448.41 666.867 4432.27 670.067 4420.01 673C4407.74 675.933 4396.94 679.133 4387.61 682.6C4376.94 686.867 4368.27 691.533 4361.61 696.6C4355.21 701.4 4350.41 706.733 4347.21 712.6C4344.27 718.467 4342.81 725 4342.81 732.2C4342.81 742.067 4345.21 750.6 4350.01 757.8C4355.07 764.733 4362.14 770.067 4371.21 773.8C4380.27 777.533 4391.07 779.4 4403.61 779.4ZM4725.79 1045L4808.99 816.2L4810.59 883.4L4622.59 421H4735.39L4861.79 748.2H4836.19L4961.79 421H5070.59L4826.59 1045H4725.79ZM5048.38 853V744.2H5157.18V853H5048.38Z" fill="white"/>
<path d="M658.408 105V688.344L215.959 957.712L500.39 1144.73L844.517 923.397L970.751 839.692C984.021 830.892 992 816.028 992 800.105V105H658.408Z" fill="url(#paint0_linear_1_10)"/>
<path d="M991.999 105H8.7793V430.986H991.999V105Z" fill="url(#paint1_linear_1_10)"/>
<path d="M342.371 105V688.344L489.854 791.287L215.957 957.712L156.262 923.397L20.4779 829.472C7.65355 820.601 0 806.001 0 790.407V105H342.371Z" fill="url(#paint2_linear_1_10)"/>
<defs>
<linearGradient id="paint0_linear_1_10" x1="826.967" y1="911.389" x2="826.967" y2="105" gradientUnits="userSpaceOnUse">
<stop stop-color="white"/>
<stop offset="1" stop-color="white" stop-opacity="0.5"/>
</linearGradient>
<linearGradient id="paint1_linear_1_10" x1="991.999" y1="269.709" x2="8.7793" y2="269.709" gradientUnits="userSpaceOnUse">
<stop stop-color="white"/>
<stop offset="1" stop-color="white" stop-opacity="0.5"/>
</linearGradient>
<linearGradient id="paint2_linear_1_10" x1="502.144" y1="1141.29" x2="195.848" y2="101.097" gradientUnits="userSpaceOnUse">
<stop stop-color="white" stop-opacity="0.5"/>
<stop offset="1" stop-color="white"/>
</linearGradient>
</defs>
</svg>
