<svg width="293" height="84" viewBox="0 0 293 84" fill="none" xmlns="http://www.w3.org/2000/svg">
<path d="M105.544 72.44V27H113.48L113.992 37.432L112.904 36.28C113.459 33.3787 114.739 31.0107 116.744 29.176C118.792 27.2987 121.309 26.36 124.296 26.36C126.899 26.36 129.181 27.0213 131.144 28.344C133.107 29.624 134.664 31.5013 135.816 33.976C136.968 36.4507 137.544 39.4373 137.544 42.936C137.544 46.4347 136.947 49.4427 135.752 51.96C134.6 54.4347 133.021 56.3333 131.016 57.656C129.011 58.9787 126.728 59.64 124.168 59.64C121.395 59.64 119.091 58.8293 117.256 57.208C115.421 55.5867 114.163 53.5387 113.48 51.064L114.376 49.72V72.44H105.544ZM121.48 52.92C123.699 52.92 125.448 52.088 126.728 50.424C128.008 48.7173 128.648 46.2427 128.648 43C128.648 39.7573 128.008 37.304 126.728 35.64C125.491 33.9333 123.784 33.08 121.608 33.08C120.157 33.08 118.877 33.4853 117.768 34.296C116.701 35.064 115.869 36.1947 115.272 37.688C114.675 39.1387 114.376 40.9093 114.376 43C114.376 45.048 114.653 46.8187 115.208 48.312C115.805 49.7627 116.616 50.8933 117.64 51.704C118.707 52.5147 119.987 52.92 121.48 52.92ZM156.118 59.64C153.003 59.64 150.144 59.0853 147.542 57.976C144.939 56.824 142.806 55.1813 141.142 53.048L145.814 48.056C146.795 49.6773 148.16 50.9787 149.91 51.96C151.702 52.9413 153.707 53.432 155.926 53.432C157.462 53.432 158.72 53.1547 159.702 52.6C160.726 52.0027 161.238 51.192 161.238 50.168C161.238 49.4427 161.003 48.824 160.534 48.312C160.064 47.8 159.126 47.3947 157.718 47.096L152.47 46.008C148.8 45.1973 146.198 44.024 144.662 42.488C143.126 40.952 142.358 38.9467 142.358 36.472C142.358 34.7227 142.87 33.1013 143.894 31.608C144.96 30.072 146.518 28.8133 148.566 27.832C150.656 26.8507 153.216 26.36 156.246 26.36C159.403 26.36 162.134 26.8933 164.438 27.96C166.784 29.0267 168.598 30.52 169.878 32.44L165.206 37.24C164.31 35.704 163.051 34.552 161.43 33.784C159.851 32.9733 158.251 32.568 156.63 32.568C155.435 32.568 154.432 32.7173 153.622 33.016C152.811 33.272 152.192 33.656 151.766 34.168C151.339 34.6373 151.126 35.2133 151.126 35.896C151.126 36.6213 151.424 37.2613 152.022 37.816C152.619 38.3707 153.643 38.7973 155.094 39.096L161.43 40.376C164.544 41.016 166.763 42.0827 168.086 43.576C169.451 45.0693 170.134 46.8827 170.134 49.016C170.134 52.088 168.939 54.6267 166.55 56.632C164.16 58.6373 160.683 59.64 156.118 59.64ZM203.302 27L190.95 60.792C189.926 63.6507 188.795 65.9547 187.558 67.704C186.363 69.4533 184.913 70.7333 183.206 71.544C181.542 72.3547 179.537 72.76 177.19 72.76C175.526 72.76 174.011 72.568 172.646 72.184C171.281 71.8 170.086 71.2667 169.062 70.584L170.982 64.312C171.707 64.952 172.497 65.4 173.35 65.656C174.246 65.912 175.27 66.04 176.422 66.04C177.83 66.04 178.918 65.7413 179.686 65.144C180.454 64.5467 181.094 63.5653 181.606 62.2L182.694 59.448L179.174 51.064L169.638 27H179.43L185.254 46.392L186.854 52.664L188.71 46.008L194.406 27H203.302ZM206.829 59V27H214.701L215.213 36.792L214.189 35.768C214.914 32.6533 216.301 30.3067 218.349 28.728C220.397 27.1493 222.872 26.36 225.773 26.36C227.949 26.36 229.869 26.808 231.533 27.704C233.197 28.5573 234.498 29.8373 235.437 31.544C236.418 33.2507 236.909 35.384 236.909 37.944V59H228.077V40.376C228.077 37.7733 227.565 35.9387 226.541 34.872C225.517 33.8053 224.194 33.272 222.573 33.272C221.421 33.272 220.312 33.5707 219.245 34.168C218.178 34.7227 217.304 35.64 216.621 36.92C215.981 38.2 215.661 39.864 215.661 41.912V59H206.829ZM258.695 26.36C261.553 26.36 263.964 26.7867 265.927 27.64C267.889 28.4933 269.447 29.624 270.599 31.032C271.793 32.44 272.625 34.04 273.095 35.832L264.903 38.776C264.519 36.8133 263.836 35.3413 262.855 34.36C261.916 33.3787 260.572 32.888 258.823 32.888C257.287 32.888 255.964 33.272 254.855 34.04C253.745 34.808 252.913 35.9387 252.359 37.432C251.804 38.9253 251.527 40.8027 251.527 43.064C251.527 45.3253 251.825 47.2027 252.423 48.696C253.02 50.1893 253.873 51.2987 254.983 52.024C256.092 52.7493 257.393 53.112 258.887 53.112C260.124 53.112 261.169 52.8987 262.023 52.472C262.919 52.0027 263.623 51.3413 264.135 50.488C264.689 49.6347 265.073 48.5893 265.287 47.352L273.223 49.976C272.839 51.8533 272.007 53.5387 270.727 55.032C269.489 56.4827 267.868 57.6133 265.863 58.424C263.9 59.2347 261.596 59.64 258.951 59.64C255.708 59.64 252.849 58.9787 250.375 57.656C247.943 56.3333 246.044 54.4347 244.679 51.96C243.313 49.4853 242.631 46.4987 242.631 43C242.631 39.5013 243.313 36.5147 244.679 34.04C246.044 31.5653 247.921 29.6667 250.311 28.344C252.743 27.0213 255.537 26.36 258.695 26.36Z" fill="white"/>
<path d="M5.44 59V21.176C5.44 20.3227 5.41867 19.2347 5.376 17.912C5.376 16.5467 5.33333 15.224 5.248 13.944C5.16267 12.664 5.01333 11.64 4.8 10.872L4.992 10.36H14.4V59H5.44Z" fill="white"/>
<rect x="19" y="25" width="82" height="34" rx="17" fill="white"/>
<rect x="26" y="32" width="67" height="20" rx="10" fill="black"/>
<path d="M277.96 22.8C277.96 21.2533 278.247 19.9267 278.82 18.82C279.407 17.7 280.22 16.8467 281.26 16.26C282.313 15.66 283.533 15.36 284.92 15.36C286.307 15.36 287.52 15.66 288.56 16.26C289.613 16.8467 290.427 17.7 291 18.82C291.587 19.9267 291.88 21.2533 291.88 22.8C291.88 24.3467 291.587 25.68 291 26.8C290.427 27.9067 289.613 28.76 288.56 29.36C287.52 29.9467 286.307 30.24 284.92 30.24C283.533 30.24 282.313 29.9467 281.26 29.36C280.22 28.76 279.407 27.9067 278.82 26.8C278.247 25.68 277.96 24.3467 277.96 22.8ZM279.4 22.8C279.4 24.1867 279.633 25.34 280.1 26.26C280.567 27.1667 281.213 27.8467 282.04 28.3C282.867 28.74 283.827 28.96 284.92 28.96C286.013 28.96 286.973 28.7333 287.8 28.28C288.627 27.8133 289.273 27.1267 289.74 26.22C290.207 25.3 290.44 24.16 290.44 22.8C290.44 21.44 290.207 20.3067 289.74 19.4C289.273 18.48 288.627 17.7933 287.8 17.34C286.973 16.8733 286.013 16.64 284.92 16.64C283.827 16.64 282.867 16.8667 282.04 17.32C281.213 17.76 280.567 18.44 280.1 19.36C279.633 20.2667 279.4 21.4133 279.4 22.8ZM281.32 22.8C281.32 21.6 281.687 20.62 282.42 19.86C283.153 19.1 284.2 18.72 285.56 18.72C285.907 18.72 286.247 18.7467 286.58 18.8C286.913 18.8533 287.187 18.9267 287.4 19.02V20.24H287.32C287.107 20.1333 286.847 20.0533 286.54 20C286.233 19.9467 285.907 19.92 285.56 19.92C284.68 19.92 283.98 20.1533 283.46 20.62C282.94 21.0733 282.68 21.8 282.68 22.8C282.68 23.8 282.94 24.5333 283.46 25C283.98 25.4533 284.68 25.68 285.56 25.68C285.907 25.68 286.233 25.6533 286.54 25.6C286.847 25.5333 287.107 25.4533 287.32 25.36H287.4V26.58C287.187 26.6733 286.913 26.7467 286.58 26.8C286.247 26.8533 285.907 26.88 285.56 26.88C284.2 26.88 283.153 26.5 282.42 25.74C281.687 24.98 281.32 24 281.32 22.8Z" fill="white"/>
</svg>
